<?xml version="1.0" encoding="UTF-8" standalone="no"?>
<svg
   xmlns:dc="http://purl.org/dc/elements/1.1/"
   xmlns:cc="http://creativecommons.org/ns#"
   xmlns:rdf="http://www.w3.org/1999/02/22-rdf-syntax-ns#"
   xmlns:svg="http://www.w3.org/2000/svg"
   xmlns="http://www.w3.org/2000/svg"
   xmlns:sodipodi="http://sodipodi.sourceforge.net/DTD/sodipodi-0.dtd"
   xmlns:inkscape="http://www.inkscape.org/namespaces/inkscape"
   width="100%"
   height="100%"
   viewBox="0 0 5314 4091"
   version="1.1"
   xml:space="preserve"
   style="fill-rule:evenodd;clip-rule:evenodd;stroke-linejoin:round;stroke-miterlimit:1.41421;"
   id="svg2"
   inkscape:version="0.48.4 r9939"
   sodipodi:docname="logo-geometrique.svg"><metadata
     id="metadata32"><rdf:RDF><cc:Work
         rdf:about=""><dc:format>image/svg+xml</dc:format><dc:type
           rdf:resource="http://purl.org/dc/dcmitype/StillImage" /><dc:title></dc:title><dc:creator><cc:Agent><dc:title>Joël Cohen</dc:title></cc:Agent></dc:creator></cc:Work></rdf:RDF></metadata><defs
     id="defs30" /><sodipodi:namedview
     pagecolor="#ffffff"
     bordercolor="#666666"
     borderopacity="1"
     objecttolerance="10"
     gridtolerance="10"
     guidetolerance="10"
     inkscape:pageopacity="0"
     inkscape:pageshadow="2"
     inkscape:window-width="1031"
     inkscape:window-height="480"
     id="namedview28"
     showgrid="false"
     inkscape:zoom="0.057687607"
     inkscape:cx="2657"
     inkscape:cy="2045.5"
     inkscape:window-x="362"
     inkscape:window-y="117"
     inkscape:window-maximized="0"
     inkscape:current-layer="svg2" /><g
     transform="matrix(0.880157,-0.508159,0.508159,0.880157,600.449,1758.39)"
     id="g4"><g
       transform="matrix(1,0,0,1,510.471,-58.5003)"
       id="g6"><path
         d="M-1124.19,827.326L3886.89,826.772L2866.86,2596.79L2660.41,2597.87L2866.86,2244.09L-920.578,2244.09L-920.578,1002.83L-1226.48,1009.3L-1124.19,827.326Z"
         style="fill:white;"
         id="path8" /></g><g
       id="g10"><g
         transform="matrix(1,0,0,1,510.471,-58.5003)"
         id="g12"><path
           d="M2148.02,1003.94L2761.74,2066.93L1534.3,2066.93L2148.02,1003.94Z"
           style="fill:rgb(0,221,255);"
           id="path14" /></g><g
         transform="matrix(1,0,0,1,510.471,-58.5003)"
         id="g16"><path
           d="M2966.31,2066.93L2352.59,1003.94L3580.03,1003.94L2966.31,2066.93Z"
           style="fill:rgb(0,221,255);"
           id="path18" /></g><g
         transform="matrix(1,0,0,1,510.471,-58.5003)"
         id="g20"><path
           d="M1022.87,1003.94C1316.2,1003.94 1554.36,1242.09 1554.36,1535.43C1554.36,1828.77 1316.2,2066.93 1022.87,2066.93C1022.87,2066.93 491.369,2066.93 491.369,2066.93L491.369,1003.94L1022.87,1003.94Z"
           style="fill:rgb(0,221,255);"
           id="path22" /></g><g
         transform="matrix(1.01548,0,0,1.01548,-556.142,-90.5015)"
         id="g24"><rect
           x="306.859"
           y="1018.62"
           width="1048.3"
           height="1048.3"
           style="fill:rgb(0,221,255);"
           id="rect26" /></g></g></g></svg>