<?xml version="1.0" encoding="UTF-8" standalone="no"?>
<svg
   xmlns:dc="http://purl.org/dc/elements/1.1/"
   xmlns:cc="http://creativecommons.org/ns#"
   xmlns:rdf="http://www.w3.org/1999/02/22-rdf-syntax-ns#"
   xmlns:svg="http://www.w3.org/2000/svg"
   xmlns="http://www.w3.org/2000/svg"
   xmlns:sodipodi="http://sodipodi.sourceforge.net/DTD/sodipodi-0.dtd"
   xmlns:inkscape="http://www.inkscape.org/namespaces/inkscape"
   width="100%"
   height="100%"
   viewBox="0 0 4411.92 4411.92"
   version="1.1"
   xml:space="preserve"
   style="fill-rule:evenodd;stroke-linejoin:round;stroke-miterlimit:1.41420996"
   id="svg2"
   inkscape:version="0.48.4 r9939"
   sodipodi:docname="logo-geometrique-carre.svg"><metadata
     id="metadata32"><rdf:RDF><cc:Work
         rdf:about=""><dc:format>image/svg+xml</dc:format><dc:type
           rdf:resource="http://purl.org/dc/dcmitype/StillImage" /><dc:title></dc:title><dc:creator><cc:Agent><dc:title>Joël Cohen</dc:title></cc:Agent></dc:creator></cc:Work></rdf:RDF></metadata><defs
     id="defs30" /><sodipodi:namedview
     pagecolor="#ffffff"
     bordercolor="#666666"
     borderopacity="1"
     objecttolerance="10"
     gridtolerance="10"
     guidetolerance="10"
     inkscape:pageopacity="0"
     inkscape:pageshadow="2"
     inkscape:window-width="1031"
     inkscape:window-height="558"
     id="namedview28"
     showgrid="false"
     fit-margin-top="0"
     fit-margin-left="0"
     fit-margin-right="0"
     fit-margin-bottom="0"
     units="px"
     inkscape:zoom="0.057687607"
     inkscape:cx="2206.0342"
     inkscape:cy="1844.9528"
     inkscape:window-x="281"
     inkscape:window-y="78"
     inkscape:window-maximized="0"
     inkscape:current-layer="svg2" /><g
     transform="matrix(0.880157,-0.508159,0.508159,0.880157,149.48322,1919.1084)"
     id="g4"><g
       transform="translate(510.471,-58.5003)"
       id="g6"><path
         d="m -1124.19,827.326 5011.08,-0.554 -1020.03,1770.018 -206.45,1.08 206.45,-353.78 -3787.438,0 0,-1241.26 -305.902,6.47 102.29,-181.974 z"
         style="fill:#ffffff"
         id="path8"
         inkscape:connector-curvature="0" /></g><g
       id="g10"><g
         transform="translate(510.471,-58.5003)"
         id="g12"><path
           d="m 2148.02,1003.94 613.72,1062.99 -1227.44,0 613.72,-1062.99 z"
           style="fill:#00ddff"
           id="path14"
           inkscape:connector-curvature="0" /></g><g
         transform="translate(510.471,-58.5003)"
         id="g16"><path
           d="m 2966.31,2066.93 -613.72,-1062.99 1227.44,0 -613.72,1062.99 z"
           style="fill:#00ddff"
           id="path18"
           inkscape:connector-curvature="0" /></g><g
         transform="translate(510.471,-58.5003)"
         id="g20"><path
           d="m 1022.87,1003.94 c 293.33,0 531.49,238.15 531.49,531.49 0,293.34 -238.16,531.5 -531.49,531.5 0,0 -531.501,0 -531.501,0 l 0,-1062.99 531.501,0 z"
           style="fill:#00ddff"
           id="path22"
           inkscape:connector-curvature="0" /></g><g
         transform="matrix(1.01548,0,0,1.01548,-556.142,-90.5015)"
         id="g24"><rect
           x="306.85901"
           y="1018.62"
           width="1048.3"
           height="1048.3"
           style="fill:#00ddff"
           id="rect26" /></g></g></g></svg>