<?xml version="1.0" encoding="UTF-8" standalone="no"?>
<!-- Created with Inkscape (http://www.inkscape.org/) -->

<svg
   xmlns:dc="http://purl.org/dc/elements/1.1/"
   xmlns:cc="http://creativecommons.org/ns#"
   xmlns:rdf="http://www.w3.org/1999/02/22-rdf-syntax-ns#"
   xmlns:svg="http://www.w3.org/2000/svg"
   xmlns="http://www.w3.org/2000/svg"
   xmlns:sodipodi="http://sodipodi.sourceforge.net/DTD/sodipodi-0.dtd"
   xmlns:inkscape="http://www.inkscape.org/namespaces/inkscape"
   width="5.0799999mm"
   height="4.0917134mm"
   viewBox="0 0 17.999999 14.498197"
   id="svg2"
   version="1.1"
   inkscape:version="0.91 r13725"
   sodipodi:docname="pi-noir.svg">
  <defs
     id="defs4" />
  <sodipodi:namedview
     id="base"
     pagecolor="#ffffff"
     bordercolor="#666666"
     borderopacity="1.0"
     inkscape:pageopacity="0.0"
     inkscape:pageshadow="2"
     inkscape:zoom="16.212598"
     inkscape:cx="9.0227253"
     inkscape:cy="29.960026"
     inkscape:document-units="px"
     inkscape:current-layer="text4136"
     showgrid="false"
     inkscape:window-width="1280"
     inkscape:window-height="700"
     inkscape:window-x="0"
     inkscape:window-y="0"
     inkscape:window-maximized="1"
     fit-margin-top="0"
     fit-margin-left="0"
     fit-margin-right="0"
     fit-margin-bottom="0" />
  <metadata
     id="metadata7">
    <rdf:RDF>
      <cc:Work
         rdf:about="">
        <dc:format>image/svg+xml</dc:format>
        <dc:type
           rdf:resource="http://purl.org/dc/dcmitype/StillImage" />
        <dc:title></dc:title>
      </cc:Work>
    </rdf:RDF>
  </metadata>
  <g
     inkscape:label="Calque 1"
     inkscape:groupmode="layer"
     id="layer1"
     transform="translate(1.6270802e-8,-1037.8641)">
    <g
       transform="scale(1.0919151,0.91582215)"
       style="font-style:normal;font-variant:normal;font-weight:normal;font-stretch:normal;font-size:34.34472656px;line-height:125%;font-family:'Times New Roman';-inkscape-font-specification:'Times New Roman, ';letter-spacing:0px;word-spacing:0px;fill:#000000;fill-opacity:1;stroke:none;stroke-width:1px;stroke-linecap:butt;stroke-linejoin:miter;stroke-opacity:1"
       id="text4136">
      <path
         d="m 16.434488,1133.2594 0,2.4484 -3.890613,0 -0.335398,5.098 q -0.100619,1.3249 -0.100619,2.2975 0,2.331 0.536636,2.8509 0.553406,0.5031 1.324821,0.5031 1.609909,0 1.911767,-2.0292 l 0.603716,0 q -0.553406,4.6621 -3.722915,4.6621 -1.47575,0 -2.381324,-0.9056 -0.8888035,-0.9056 -0.8888035,-2.6832 0,-1.1739 0.3521676,-4.9639 l 0.4527869,-4.8297 -3.5552158,0 q -0.3521676,6.1042 -0.8552642,8.9216 -0.4863267,2.8173 -1.0900426,3.639 -0.586946,0.8218 -1.6099091,0.8218 -0.7714147,0 -1.3080511,-0.4528 -0.5198664,-0.4528 -0.5198664,-1.1907 0,-0.7043 0.9055738,-1.9285 1.324821,-1.7776 1.9788465,-3.6894 0.6540256,-1.9285 0.9894233,-6.121 l -1.1403522,0 q -1.3751307,0 -2.1130057,0.6205 -0.7211051,0.6037 -1.37513062,1.744 l -0.603715894901158,0 Q 0.48632668,1136.278 1.2577414,1135.1208 q 0.7714148,-1.1571 1.5763693,-1.5092 0.8217244,-0.3522 2.9011903,-0.3522 l 10.699187,0 z"
         id="path4201"
         inkscape:connector-curvature="0" />
    </g>
  </g>
</svg>
