<?xml version="1.0" encoding="UTF-8" standalone="no"?>
<!DOCTYPE svg PUBLIC "-//W3C//DTD SVG 1.1//EN" "http://www.w3.org/Graphics/SVG/1.1/DTD/svg11.dtd">
<svg width="100%" height="100%" viewBox="0 0 1209 107" version="1.1" xmlns="http://www.w3.org/2000/svg" xmlns:xlink="http://www.w3.org/1999/xlink" xml:space="preserve" style="fill-rule:evenodd;clip-rule:evenodd;stroke-linejoin:round;stroke-miterlimit:1.41421;">
    <g transform="matrix(1.03238,0,0,1.03238,-225.005,-234.919)">
        <g transform="matrix(1.05,0,0,1,-10.8185,0)">
            <text x="216.371px" y="322.882px" style="font-family:'Bebas';font-size:96px;fill-opacity:0.501961;">FRO<tspan x="366.166px " y="322.882px ">M</tspan></text>
        </g>
        <g transform="matrix(1.05,0,0,1,-24.1488,0)">
            <text x="482.975px" y="322.882px" style="font-family:'Bebas';font-size:96px;fill:rgb(175,10,24);">M<tspan x="553.543px 610.952px 660.862px 714.18px 759.725px 784.134px 828.112px " y="322.882px 322.882px 322.882px 322.882px 322.882px 322.882px 322.882px ">ARSEILL</tspan>E</text>
        </g>
        <g transform="matrix(1.05,0,0,1,-48.8297,0)">
            <text x="976.594px" y="322.882px" style="font-family:'Bebas';font-size:96px;fill-opacity:0.501961;">TO</text>
        </g>
        <g transform="matrix(1.05,0,0,1,-54.4818,0)">
            <text x="1116.23px" y="322.882px" style="font-family:'Bebas';font-size:96px;">V<tspan x="1175.55px 1221.09px 1270.8px 1324.32px " y="322.882px 322.882px 322.882px 322.882px ">EGAS</tspan></text>
        </g>
    </g>
</svg>
