<?xml version="1.0" encoding="UTF-8" standalone="no"?>
<!DOCTYPE svg PUBLIC "-//W3C//DTD SVG 1.1//EN" "http://www.w3.org/Graphics/SVG/1.1/DTD/svg11.dtd">
<svg width="100%" height="100%" viewBox="0 0 1209 107" version="1.1" xmlns="http://www.w3.org/2000/svg" xmlns:xlink="http://www.w3.org/1999/xlink" xml:space="preserve" style="fill-rule:evenodd;clip-rule:evenodd;stroke-linejoin:round;stroke-miterlimit:1.41421;">
    <g transform="matrix(1.03238,0,0,1.03238,-225.005,-234.919)">
        <g transform="matrix(1.05,0,0,1,-10.8185,0)">
            <path d="M233.689,322.882L220.802,322.882L220.802,237.382L257.484,237.382L257.484,250.268L233.689,250.268L233.689,273.655L251.075,273.655L251.075,286.609L233.689,286.609L233.689,322.882Z" style="fill-opacity:0.501961;fill-rule:nonzero;"/>
            <path d="M286.666,237.45C293.848,237.45 299.121,239.427 302.484,243.382C305.439,246.837 306.916,251.655 306.916,257.837L306.916,270.246C306.916,276.291 304.621,281.405 300.03,285.587L309.575,322.882L295.666,322.882L287.825,290.632C287.462,290.677 287.075,290.7 286.666,290.7L279.234,290.7L279.234,322.882L266.348,322.882L266.348,237.45L286.666,237.45ZM294.371,258.041C294.371,253.087 291.916,250.609 287.007,250.609L279.234,250.609L279.234,277.95L287.007,277.95C289.052,277.95 290.791,277.223 292.223,275.768C293.655,274.314 294.371,272.564 294.371,270.518L294.371,258.041Z" style="fill-opacity:0.501961;fill-rule:nonzero;"/>
            <path d="M338.825,236.359C344.507,236.359 349.337,238.359 353.314,242.359C357.291,246.359 359.28,251.177 359.28,256.814L359.28,303.45C359.28,309.132 357.28,313.962 353.28,317.939C349.28,321.916 344.462,323.905 338.825,323.905C333.143,323.905 328.325,321.905 324.371,317.905C320.416,313.905 318.439,309.087 318.439,303.45L318.439,256.814C318.439,251.132 320.439,246.302 324.439,242.325C328.439,238.348 333.234,236.359 338.825,236.359ZM345.848,256.541C345.848,254.496 345.132,252.757 343.7,251.325C342.268,249.893 340.53,249.177 338.484,249.177C336.439,249.177 334.689,249.893 333.234,251.325C331.78,252.757 331.052,254.496 331.052,256.541L331.052,303.314C331.052,305.359 331.78,307.098 333.234,308.53C334.689,309.962 336.439,310.677 338.484,310.677C340.53,310.677 342.268,309.962 343.7,308.53C345.132,307.098 345.848,305.359 345.848,303.314L345.848,256.541Z" style="fill-opacity:0.501961;fill-rule:nonzero;"/>
            <path d="M383.484,322.882L370.598,322.882L370.598,237.382L389.075,237.382L401.075,298.677L412.598,237.382L430.393,237.382L430.393,322.882L417.507,322.882L417.507,269.155L406.325,322.882L395.962,322.882L383.484,269.291L383.484,322.882Z" style="fill-opacity:0.501961;fill-rule:nonzero;"/>
        </g>
        <g transform="matrix(1.05,0,0,1,-24.1488,0)">
            <path d="M500.293,322.882L487.407,322.882L487.407,237.382L505.884,237.382L517.884,298.677L529.407,237.382L547.202,237.382L547.202,322.882L534.316,322.882L534.316,269.155L523.134,322.882L512.771,322.882L500.293,269.291L500.293,322.882Z" style="fill:rgb(175,10,24);fill-rule:nonzero;"/>
            <path d="M574.543,303.246L571.407,322.882L557.975,322.882L572.498,237.45L590.225,237.45L604.543,322.882L591.043,322.882L587.975,303.246L574.543,303.246ZM581.293,257.018L576.521,290.7L586.066,290.7L581.293,257.018Z" style="fill:rgb(175,10,24);fill-rule:nonzero;"/>
            <path d="M635.702,237.45C642.884,237.45 648.157,239.427 651.521,243.382C654.475,246.837 655.952,251.655 655.952,257.837L655.952,270.246C655.952,276.291 653.657,281.405 649.066,285.587L658.612,322.882L644.702,322.882L636.862,290.632C636.498,290.677 636.112,290.7 635.702,290.7L628.271,290.7L628.271,322.882L615.384,322.882L615.384,237.45L635.702,237.45ZM643.407,258.041C643.407,253.087 640.952,250.609 636.043,250.609L628.271,250.609L628.271,277.95L636.043,277.95C638.089,277.95 639.827,277.223 641.259,275.768C642.691,274.314 643.407,272.564 643.407,270.518L643.407,258.041Z" style="fill:rgb(175,10,24);fill-rule:nonzero;"/>
            <path d="M707.907,301.609C707.998,307.564 706.452,312.655 703.271,316.882C701.18,319.746 698.225,321.768 694.407,322.95C692.362,323.587 689.975,323.905 687.248,323.905C682.202,323.905 678.021,322.655 674.702,320.155C671.93,318.109 669.737,315.325 668.123,311.802C666.509,308.28 665.566,304.246 665.293,299.7L677.566,298.814C678.112,303.768 679.43,307.359 681.521,309.587C683.066,311.268 684.839,312.064 686.839,311.973C689.657,311.882 691.907,310.496 693.589,307.814C694.452,306.496 694.884,304.609 694.884,302.155C694.884,298.609 693.271,295.087 690.043,291.587C687.498,289.177 683.68,285.564 678.589,280.746C674.316,276.609 671.293,272.905 669.521,269.632C667.612,265.95 666.657,261.95 666.657,257.632C666.657,249.859 669.271,243.973 674.498,239.973C677.725,237.564 681.725,236.359 686.498,236.359C691.089,236.359 695.021,237.382 698.293,239.427C700.839,241.018 702.896,243.246 704.464,246.109C706.032,248.973 706.975,252.268 707.293,255.996L694.952,258.246C694.589,254.746 693.589,252.018 691.952,250.064C690.771,248.655 689.066,247.95 686.839,247.95C684.475,247.95 682.68,248.996 681.452,251.087C680.452,252.768 679.952,254.859 679.952,257.359C679.952,261.268 681.634,265.246 684.998,269.291C686.271,270.837 688.18,272.655 690.725,274.746C693.725,277.246 695.702,278.996 696.657,279.996C699.839,283.177 702.293,286.314 704.021,289.405C704.839,290.859 705.498,292.2 705.998,293.427C707.225,296.473 707.862,299.2 707.907,301.609Z" style="fill:rgb(175,10,24);fill-rule:nonzero;"/>
            <path d="M718.612,322.882L718.612,237.382L755.293,237.382L755.293,250.268L731.498,250.268L731.498,273.655L748.884,273.655L748.884,286.609L731.498,286.609L731.498,309.996L755.293,309.996L755.293,322.882L718.612,322.882Z" style="fill:rgb(175,10,24);fill-rule:nonzero;"/>
            <rect x="764.157" y="237.45" width="12.886" height="85.432" style="fill:rgb(175,10,24);fill-rule:nonzero;"/>
            <path d="M823.68,322.882L788.566,322.882L788.566,237.45L801.452,237.45L801.452,310.064L823.68,310.064L823.68,322.882Z" style="fill:rgb(175,10,24);fill-rule:nonzero;"/>
            <path d="M867.657,322.882L832.543,322.882L832.543,237.45L845.43,237.45L845.43,310.064L867.657,310.064L867.657,322.882Z" style="fill:rgb(175,10,24);fill-rule:nonzero;"/>
            <path d="M876.521,322.882L876.521,237.382L913.202,237.382L913.202,250.268L889.407,250.268L889.407,273.655L906.793,273.655L906.793,286.609L889.407,286.609L889.407,309.996L913.202,309.996L913.202,322.882L876.521,322.882Z" style="fill:rgb(175,10,24);fill-rule:nonzero;"/>
        </g>
        <g transform="matrix(1.05,0,0,1,-48.8297,0)">
            <path d="M994.731,250.337L981.026,250.337L981.026,237.45L1021.25,237.45L1021.25,250.337L1007.62,250.337L1007.62,322.882L994.731,322.882L994.731,250.337Z" style="fill-opacity:0.501961;fill-rule:nonzero;"/>
            <path d="M1050.5,236.359C1056.18,236.359 1061.02,238.359 1064.99,242.359C1068.97,246.359 1070.96,251.177 1070.96,256.814L1070.96,303.45C1070.96,309.132 1068.96,313.962 1064.96,317.939C1060.96,321.916 1056.14,323.905 1050.5,323.905C1044.82,323.905 1040,321.905 1036.05,317.905C1032.09,313.905 1030.12,309.087 1030.12,303.45L1030.12,256.814C1030.12,251.132 1032.12,246.302 1036.12,242.325C1040.12,238.348 1044.91,236.359 1050.5,236.359ZM1057.53,256.541C1057.53,254.496 1056.81,252.757 1055.38,251.325C1053.95,249.893 1052.21,249.177 1050.16,249.177C1048.12,249.177 1046.37,249.893 1044.91,251.325C1043.46,252.757 1042.73,254.496 1042.73,256.541L1042.73,303.314C1042.73,305.359 1043.46,307.098 1044.91,308.53C1046.37,309.962 1048.12,310.677 1050.16,310.677C1052.21,310.677 1053.95,309.962 1055.38,308.53C1056.81,307.098 1057.53,305.359 1057.53,303.314L1057.53,256.541Z" style="fill-opacity:0.501961;fill-rule:nonzero;"/>
        </g>
        <g transform="matrix(1.05,0,0,1,-54.4818,0)">
            <path d="M1135.93,322.882L1120.66,237.45L1134.16,237.45L1144.86,303.927L1155.7,237.45L1169.2,237.45L1153.66,322.882L1135.93,322.882Z" style="fill-rule:nonzero;"/>
            <path d="M1179.98,322.882L1179.98,237.382L1216.66,237.382L1216.66,250.268L1192.86,250.268L1192.86,273.655L1210.25,273.655L1210.25,286.609L1192.86,286.609L1192.86,309.996L1216.66,309.996L1216.66,322.882L1179.98,322.882Z" style="fill-rule:nonzero;"/>
            <path d="M1245.98,323.973C1240.3,323.973 1235.47,321.973 1231.49,317.973C1227.51,313.973 1225.52,309.177 1225.52,303.587L1225.52,256.95C1225.52,251.268 1227.52,246.439 1231.52,242.462C1235.52,238.484 1240.34,236.496 1245.98,236.496C1251.66,236.496 1256.48,238.496 1260.43,242.496C1264.39,246.496 1266.36,251.314 1266.36,256.95L1266.36,266.7L1253,266.7L1253,256.677C1253,254.632 1252.27,252.882 1250.82,251.427C1249.36,249.973 1247.61,249.246 1245.57,249.246C1243.52,249.246 1241.78,249.973 1240.35,251.427C1238.92,252.882 1238.2,254.632 1238.2,256.677L1238.2,303.45C1238.2,305.496 1238.92,307.234 1240.35,308.666C1241.78,310.098 1243.52,310.814 1245.57,310.814C1247.61,310.814 1249.36,310.098 1250.82,308.666C1252.27,307.234 1253,305.496 1253,303.45L1253,286.609L1245.84,286.609L1245.84,273.723L1266.36,273.723L1266.36,303.587C1266.36,309.268 1264.36,314.087 1260.36,318.041C1256.36,321.996 1251.57,323.973 1245.98,323.973Z" style="fill-rule:nonzero;"/>
            <path d="M1291.8,303.246L1288.66,322.882L1275.23,322.882L1289.75,237.45L1307.48,237.45L1321.8,322.882L1308.3,322.882L1305.23,303.246L1291.8,303.246ZM1298.55,257.018L1293.77,290.7L1303.32,290.7L1298.55,257.018Z" style="fill-rule:nonzero;"/>
            <path d="M1371.36,301.609C1371.45,307.564 1369.91,312.655 1366.73,316.882C1364.64,319.746 1361.68,321.768 1357.86,322.95C1355.82,323.587 1353.43,323.905 1350.7,323.905C1345.66,323.905 1341.48,322.655 1338.16,320.155C1335.39,318.109 1333.19,315.325 1331.58,311.802C1329.97,308.28 1329.02,304.246 1328.75,299.7L1341.02,298.814C1341.57,303.768 1342.89,307.359 1344.98,309.587C1346.52,311.268 1348.3,312.064 1350.3,311.973C1353.11,311.882 1355.36,310.496 1357.05,307.814C1357.91,306.496 1358.34,304.609 1358.34,302.155C1358.34,298.609 1356.73,295.087 1353.5,291.587C1350.95,289.177 1347.14,285.564 1342.05,280.746C1337.77,276.609 1334.75,272.905 1332.98,269.632C1331.07,265.95 1330.11,261.95 1330.11,257.632C1330.11,249.859 1332.73,243.973 1337.95,239.973C1341.18,237.564 1345.18,236.359 1349.95,236.359C1354.55,236.359 1358.48,237.382 1361.75,239.427C1364.3,241.018 1366.35,243.246 1367.92,246.109C1369.49,248.973 1370.43,252.268 1370.75,255.996L1358.41,258.246C1358.05,254.746 1357.05,252.018 1355.41,250.064C1354.23,248.655 1352.52,247.95 1350.3,247.95C1347.93,247.95 1346.14,248.996 1344.91,251.087C1343.91,252.768 1343.41,254.859 1343.41,257.359C1343.41,261.268 1345.09,265.246 1348.45,269.291C1349.73,270.837 1351.64,272.655 1354.18,274.746C1357.18,277.246 1359.16,278.996 1360.11,279.996C1363.3,283.177 1365.75,286.314 1367.48,289.405C1368.3,290.859 1368.95,292.2 1369.45,293.427C1370.68,296.473 1371.32,299.2 1371.36,301.609Z" style="fill-rule:nonzero;"/>
        </g>
    </g>
</svg>
