<?xml version="1.0" encoding="UTF-8" standalone="no"?>
<!-- Created with Inkscape (http://www.inkscape.org/) -->

<svg
   xmlns:dc="http://purl.org/dc/elements/1.1/"
   xmlns:cc="http://creativecommons.org/ns#"
   xmlns:rdf="http://www.w3.org/1999/02/22-rdf-syntax-ns#"
   xmlns:svg="http://www.w3.org/2000/svg"
   xmlns="http://www.w3.org/2000/svg"
   xmlns:sodipodi="http://sodipodi.sourceforge.net/DTD/sodipodi-0.dtd"
   xmlns:inkscape="http://www.inkscape.org/namespaces/inkscape"
   width="296.621"
   height="48.28928"
   id="svg2"
   version="1.1"
   inkscape:version="0.48.4 r9939"
   sodipodi:docname="tournee-de-pi-texte.svg">
  <defs
     id="defs4" />
  <sodipodi:namedview
     id="base"
     pagecolor="#ffffff"
     bordercolor="#666666"
     borderopacity="1"
     inkscape:pageopacity="0.0"
     inkscape:pageshadow="2"
     inkscape:zoom="1.4142136"
     inkscape:cx="155.45325"
     inkscape:cy="-37.6259"
     inkscape:document-units="px"
     inkscape:current-layer="layer1"
     showgrid="false"
     fit-margin-top="0"
     fit-margin-left="0"
     fit-margin-right="0"
     fit-margin-bottom="0"
     inkscape:window-width="903"
     inkscape:window-height="711"
     inkscape:window-x="75"
     inkscape:window-y="24"
     inkscape:window-maximized="0"
     showguides="true"
     inkscape:guide-bbox="true" />
  <metadata
     id="metadata7">
    <rdf:RDF>
      <cc:Work
         rdf:about="">
        <dc:format>image/svg+xml</dc:format>
        <dc:type
           rdf:resource="http://purl.org/dc/dcmitype/StillImage" />
        <dc:title></dc:title>
      </cc:Work>
    </rdf:RDF>
  </metadata>
  <g
     inkscape:label="Calque 1"
     inkscape:groupmode="layer"
     id="layer1"
     transform="translate(-41.846998,-143.13019)">
    <g
       transform="matrix(1.0965756,0,0,1.0965756,-4.0409522,-18.48646)"
       style="font-size:40px;font-style:normal;font-variant:normal;font-weight:normal;font-stretch:normal;line-height:125%;letter-spacing:1.82385969px;word-spacing:0px;fill:#ffffff;fill-opacity:1;stroke:none;font-family:Bebas;-inkscape-font-specification:Bebas"
       id="flowRoot2985">
      <path
         d="m 47.556818,160.76607 -5.710227,0 0,-5.36932 16.761364,0 0,5.36932 -5.681819,0 0,30.22727 -5.369318,0 0,-30.22727"
         style=""
         id="path3787" />
      <path
         d="m 72.633519,154.9422 c 2.367412,4e-5 4.374986,0.83337 6.022728,2.5 1.666648,1.6667 2.499981,3.67428 2.5,6.02273 l 0,19.43182 c -1.9e-5,2.36743 -0.833352,4.38447 -2.5,6.05114 -1.666682,1.64772 -3.674256,2.47159 -6.022728,2.47159 -2.367432,0 -4.375006,-0.83334 -6.022727,-2.5 -1.64773,-1.66667 -2.471593,-3.67424 -2.471591,-6.02273 l 0,-19.43182 c -2e-6,-2.36739 0.833331,-4.37497 2.5,-6.02273 1.666661,-1.66663 3.664765,-2.49996 5.994318,-2.5 m 2.926137,8.4091 c -1.4e-5,-0.85225 -0.303044,-1.57195 -0.909091,-2.1591 -0.587133,-0.60603 -1.30683,-0.90906 -2.159091,-0.90909 -0.852282,3e-5 -1.581448,0.30306 -2.1875,0.90909 -0.606068,0.58715 -0.909098,1.30685 -0.909091,2.1591 l 0,19.48863 c -7e-6,0.85228 0.303023,1.58145 0.909091,2.1875 0.606052,0.58713 1.335218,0.88069 2.1875,0.88068 0.852261,1e-5 1.571958,-0.29355 2.159091,-0.88068 0.606047,-0.60605 0.909077,-1.33522 0.909091,-2.1875 l 0,-19.48863"
         style=""
         id="path3789" />
      <path
         d="m 96.215192,191.39107 c -2.367432,0 -4.375006,-0.82387 -6.022727,-2.47159 -1.64773,-1.64773 -2.471593,-3.64583 -2.471591,-5.99432 l 0,-27.52841 5.255682,0 0,27.47159 c -8e-6,0.85228 0.303022,1.58145 0.90909,2.1875 0.606052,0.58713 1.335218,0.88069 2.1875,0.88068 0.852262,1e-5 1.571958,-0.29355 2.159091,-0.88068 0.606048,-0.60605 0.909078,-1.33522 0.909091,-2.1875 l 0,-27.47159 5.596592,0 0,27.52841 c -2e-5,2.38637 -0.83335,4.39394 -2.5,6.02273 -1.66668,1.62878 -3.674256,2.44318 -6.022728,2.44318"
         style=""
         id="path3791" />
      <path
         d="m 119.84658,155.39675 c 2.99241,4e-5 5.18938,0.8239 6.59091,2.47159 1.23104,1.43943 1.84657,3.447 1.84659,6.02273 l 0,5.17045 c -2e-5,2.51896 -0.95646,4.64964 -2.86932,6.39205 l 3.97728,15.53977 -5.79546,0 -3.26704,-13.4375 c -0.15153,0.019 -0.31252,0.0284 -0.48296,0.0284 l -3.09659,0 0,13.40909 -5.36932,0 0,-35.59659 8.46591,0 m 3.21023,8.57955 c -2e-5,-2.06437 -1.02274,-3.09657 -3.06818,-3.0966 l -3.23864,0 0,11.39205 3.23864,0 c 0.85226,2e-5 1.57195,-0.30301 2.15909,-0.90909 0.60604,-0.60604 0.90907,-1.33521 0.90909,-2.1875 l 0,-5.19886"
         style=""
         id="path3793" />
      <path
         d="m 141.91192,155.36834 7.10227,23.92046 0,-23.92046 5.36932,0 0,35.625 -5.76705,0 -7.38636,-22.8125 0,22.8125 -5.36932,0 0,-35.625 6.05114,0"
         style=""
         id="path3795" />
      <path
         d="m 160.96589,190.99334 0,-35.625 15.28409,0 0,5.36932 -9.91477,0 0,9.74432 7.24432,0 0,5.39772 -7.24432,0 0,9.74432 9.91477,0 0,5.36932 -15.28409,0"
         style=""
         id="path3797" />
      <path
         d="m 181.77413,190.99334 0,-35.625 15.28409,0 0,5.36932 -9.91477,0 0,9.74432 7.24431,0 0,5.39772 -7.24431,0 0,9.74432 9.91477,0 0,5.36932 -15.28409,0"
         style=""
         id="path3799" />
    </g>
    <path
       style="fill:#ffffff;stroke:#ffffff;stroke-width:4.04590701999999958;stroke-linecap:butt;stroke-linejoin:miter;stroke-miterlimit:4;stroke-opacity:1;stroke-dasharray:none"
       d="m 173.21195,149.10723 15.7434,-3.95409"
       id="path2995"
       inkscape:connector-curvature="0" />
    <g
       transform="scale(1.0297001,0.97115656)"
       style="font-size:88.76725006px;font-style:normal;font-variant:normal;font-weight:normal;font-stretch:normal;line-height:125%;letter-spacing:0px;word-spacing:0px;fill:#ffffff;fill-opacity:1;stroke:none;font-family:STIXGeneral;-inkscape-font-specification:STIXGeneral"
       id="text3765">
      <path
         d="m 327.37392,183.7005 c -1.15397,4.8822 -3.55069,5.68111 -5.50357,5.68111 -2.66301,0 -3.81699,-2.13042 -4.34959,-4.3496 -0.53261,-2.21918 -0.53261,-5.50357 -0.53261,-8.52165 0,-5.32603 0.53261,-10.65207 0.88768,-13.13756 l 10.5633,0 0,-7.45644 -25.38743,0 c -9.40932,0 -13.31509,4.0833 -16.33318,12.51618 l 1.42028,0 c 3.10685,-4.52713 6.48001,-5.05974 11.53974,-5.05974 -1.06521,22.9907 -4.79343,24.85484 -8.43289,26.00881 -1.24274,0.35507 -2.04165,1.06521 -2.04165,2.04165 0,3.10685 1.77535,5.6811 5.94741,5.6811 9.40932,0 8.25536,-26.80772 8.61042,-33.73156 l 8.25536,0 c -0.62137,6.21371 -1.42028,14.82414 -1.42028,22.54689 0,5.76986 3.10686,10.8296 8.16659,10.8296 6.30247,0 9.94193,-7.36769 9.94193,-13.04879 l -1.33151,0"
         style=""
         id="path3802" />
    </g>
    <g
       style="font-size:44.91228104px;font-style:normal;font-variant:normal;font-weight:normal;font-stretch:normal;line-height:125%;letter-spacing:2px;word-spacing:0px;fill:#ffffff;fill-opacity:1;stroke:none;font-family:Bebas;-inkscape-font-specification:Bebas"
       id="text3769">
      <path
         d="m 253.89737,181.84981 c -2e-5,2.6369 -0.92506,4.89102 -2.77512,6.76236 -1.8501,1.87135 -4.08295,2.80702 -6.69857,2.80702 l -9.47368,0 0,-40 9.47368,0 c 2.63688,4e-5 4.86974,0.93571 6.69857,2.80702 1.85006,1.87138 2.7751,4.11486 2.77512,6.73046 l 0,20.89314 m -12.91866,3.60447 3.63636,0 c 0.95692,0 1.765,-0.34024 2.42424,-1.02074 0.65921,-0.70174 0.98882,-1.52046 0.98884,-2.45614 l 0,-20.92504 c -2e-5,-0.9569 -0.34026,-1.77562 -1.02074,-2.45614 -0.65923,-0.68045 -1.45668,-1.0207 -2.39234,-1.02073 l -3.63636,0 0,27.87879"
         style=""
         id="path3805" />
      <path
         d="m 261.20438,191.41919 0,-40 17.16109,0 0,6.02871 -11.13238,0 0,10.94099 8.13397,0 0,6.0606 -8.13397,0 0,10.94099 11.13238,0 0,6.02871 -17.16109,0"
         style=""
         id="path3807" />
    </g>
  </g>
</svg>
